<svg width="1004" height="173" viewBox="0 0 1004 173" fill="none" xmlns="http://www.w3.org/2000/svg">
<path d="M542.858 61.7175V172.677" stroke="white" stroke-miterlimit="10"/>
<path d="M43.4923 94.1125C40.8261 104.088 38.2083 114.443 35.736 124.94C47.0797 132.16 58.2779 139.19 69.3792 145.318C61.0411 129.5 52.1698 112.115 43.4923 94.1125Z" fill="#F57F29"/>
<path d="M43.4923 94.1125C53.6726 101.19 63.6105 108.363 73.4029 115.06C72.094 124.845 70.7366 134.963 69.3793 145.318C61.0412 129.5 52.1698 112.115 43.4923 94.1125Z" fill="#E0601F"/>
<path d="M43.4923 94.1125C40.826 104.088 38.2082 114.443 35.7359 124.94C24.3437 117.72 12.5637 110.5 0.977631 103.945C14.8369 99.4849 29.0603 96.1954 43.4923 94.1125V94.1125Z" fill="#E0601F"/>
<path d="M43.4923 94.1125C33.3121 86.94 22.9379 79.8625 12.3699 73.5925C8.49167 83.615 4.71043 93.78 1.02615 103.945C14.8705 99.4904 29.0774 96.2009 43.4923 94.1125V94.1125Z" fill="#FDB515"/>
<path d="M54.8845 53.0725C53.1393 58.82 51.4426 64.7575 49.6974 70.8375C58.8112 78.01 67.6826 85.3725 76.3115 92.4975C69.5247 80.1 62.2046 66.8 54.8845 53.0725Z" fill="#F57F29"/>
<path d="M54.8846 53.0725C63.0772 60.34 71.0275 67.845 78.7839 75.2075C77.9598 80.8125 77.1356 86.56 76.3115 92.4975C69.5247 80.1 62.2046 66.8 54.8846 53.0725Z" fill="#E0601F"/>
<path d="M43.4923 94.1125C45.5769 86.1325 47.8068 78.39 49.8429 70.8375C58.9566 78.01 67.8765 85.3725 76.5054 92.4975C65.4736 91.9648 54.4151 92.5058 43.4923 94.1125V94.1125Z" fill="#FDB515"/>
<path d="M43.4923 94.1125C53.6726 101.19 63.6104 108.362 73.4029 115.06C74.4694 107.317 75.4874 99.8125 76.5054 92.4975C65.4736 91.9648 54.4151 92.5058 43.4923 94.1125V94.1125Z" fill="#F57F29"/>
<path d="M54.8846 53.0725C56.3389 48.3225 57.7932 43.5725 59.2475 39.2975C66.6161 46.5175 73.7907 54.165 80.626 61.7175C72.4352 57.8234 63.7912 54.9204 54.8846 53.0725V53.0725Z" fill="#B3B2B1"/>
<path d="M54.8846 53.0725C63.0772 60.34 71.0275 67.845 78.7839 75.2075C79.4141 70.4575 79.9958 66.04 80.626 61.7175C72.4352 57.8234 63.7912 54.9204 54.8846 53.0725V53.0725Z" fill="#8B8B8E"/>
<path d="M54.8845 53.0725C56.3389 48.3225 57.7932 43.5725 59.2475 39.2975C51.8305 31.9825 44.1226 25.0475 36.2692 18.3975C42.6198 30.035 48.8249 41.6725 54.8845 53.0725Z" fill="#8B8B8E"/>
<path d="M54.8845 53.0725C46.6918 45.8525 38.2083 38.8225 29.5308 32.315C31.7608 27.565 33.8938 22.815 36.2207 18.3975C42.6197 30.035 48.8248 41.6725 54.8845 53.0725Z" fill="#D2D0CE"/>
<path d="M3.15918 14.93C6.06782 10.18 9.02494 5.09749 11.8366 0.679989C20.2744 6.18599 28.3684 12.1817 36.0753 18.635C25.3366 15.8848 14.2547 14.6375 3.15918 14.93V14.93Z" fill="#8B8B8E"/>
<path d="M3.15918 14.93C12.3091 20.1837 21.1166 25.9899 29.5309 32.315C31.7608 27.565 33.8938 22.815 36.2207 18.3975C25.4209 15.7271 14.2912 14.5598 3.15918 14.93V14.93Z" fill="#B3B2B1"/>
<path d="M139.623 154.39C129.839 154.39 120.455 150.582 113.537 143.803C106.618 137.024 102.732 127.829 102.732 118.243C102.732 108.656 106.618 99.4613 113.537 92.6824C120.455 85.9034 129.839 82.095 139.623 82.095V82.095C149.407 82.095 158.791 85.9034 165.709 92.6824C172.627 99.4613 176.514 108.656 176.514 118.243C176.514 127.829 172.627 137.024 165.709 143.803C158.791 150.582 149.407 154.39 139.623 154.39ZM139.623 93.4475C133.194 93.4475 127.029 95.9497 122.484 100.404C117.938 104.858 115.384 110.899 115.384 117.198V118.29C115.228 121.437 115.713 124.582 116.809 127.544C117.906 130.505 119.593 133.223 121.772 135.54C123.951 137.856 126.579 139.724 129.502 141.036C132.425 142.348 135.585 143.077 138.799 143.18H139.623C146.051 143.18 152.217 140.678 156.762 136.224C161.308 131.77 163.862 125.729 163.862 119.43V118.385C164.012 115.238 163.527 112.093 162.437 109.129C161.346 106.166 159.67 103.441 157.505 101.113C155.339 98.7836 152.727 96.8954 149.817 95.5557C146.907 94.2161 143.756 93.4513 140.544 93.305H139.574L139.623 93.4475Z" fill="white"/>
<path d="M215.296 130.735H201.141V153.25H188.634V83.3775H216.702C233.33 83.3775 243.801 92.5925 243.801 106.795C243.801 122.612 231.003 130.735 215.296 130.735ZM215.732 94.5875H201.189V119.715H215.732C225.428 119.715 231.051 114.585 231.051 106.937C231.051 99.29 225.089 94.5875 215.732 94.5875V94.5875Z" fill="white"/>
<path d="M284.716 153.25H272.063V94.73H249.521V83.3775H307.306V94.73H284.716V153.25Z" fill="white"/>
<path d="M379.392 123.04C379.392 143.893 367.37 154.39 348.754 154.39C330.139 154.39 318.359 143.75 318.359 123.658V83.3775H330.866V123.04C330.866 135.818 337.75 143.037 348.948 143.037C360.146 143.037 366.836 136.435 366.836 123.563V83.3775H379.344L379.392 123.04Z" fill="white"/>
<path d="M428.015 136.008H427.627L405.23 103.327V153.25H393.014V83.3775H406.394L428.063 116.628L449.781 83.615H463.112V153.25H450.605V103.138L428.015 136.008Z" fill="white"/>
<path d="M476.783 91.5C476.846 88.7238 478.02 86.0831 480.051 84.1464C482.082 82.2097 484.808 81.1319 487.642 81.145C489.036 81.1388 490.418 81.4016 491.708 81.9186C492.999 82.4356 494.173 83.1967 495.163 84.1582C496.154 85.1198 496.941 86.263 497.48 87.5227C498.02 88.7825 498.301 90.1339 498.307 91.5V91.5C498.429 92.8933 498.267 94.2965 497.828 95.6273C497.389 96.958 496.684 98.1895 495.753 99.2493C494.821 100.309 493.684 101.176 492.406 101.799C491.128 102.422 489.736 102.789 488.312 102.877C486.887 102.966 485.459 102.775 484.111 102.315C482.764 101.855 481.523 101.136 480.463 100.201C479.402 99.2646 478.543 98.1305 477.936 96.8648C477.329 95.599 476.987 94.2273 476.928 92.83C476.88 92.388 476.88 91.9421 476.928 91.5H476.783ZM496.95 91.5C496.505 89.3525 495.315 87.4217 493.584 86.0349C491.852 84.6481 489.684 83.8905 487.448 83.8905C485.212 83.8905 483.044 84.6481 481.312 86.0349C479.581 87.4217 478.391 89.3525 477.946 91.5C477.908 92.722 478.117 93.9393 478.564 95.0811C479.01 96.2228 479.683 97.2662 480.545 98.1504C481.407 99.0345 482.44 99.7418 483.583 100.231C484.727 100.72 485.958 100.982 487.206 101C489.777 101 492.243 99.9991 494.061 98.2175C495.88 96.4359 496.901 94.0196 496.901 91.5H496.95ZM483.473 85.99H488.321C490.502 85.99 492.296 87.13 492.296 89.2675C492.299 90.0191 492.034 90.7481 491.547 91.329C491.061 91.9099 490.382 92.3063 489.63 92.45L492.684 96.725H490.454L487.787 92.8775H485.218V96.725H483.473V85.99ZM488.321 91.31C489.823 91.31 490.696 90.55 490.696 89.41C490.696 88.27 489.823 87.5575 488.321 87.5575H485.46V91.5L488.321 91.31Z" fill="white"/>
<path d="M621.406 151V82.2812H645.078C650.422 82.2812 654.5 82.6094 657.312 83.2656C661.25 84.1719 664.609 85.8125 667.391 88.1875C671.016 91.25 673.719 95.1719 675.5 99.9531C677.312 104.703 678.219 110.141 678.219 116.266C678.219 121.484 677.609 126.109 676.391 130.141C675.172 134.172 673.609 137.516 671.703 140.172C669.797 142.797 667.703 144.875 665.422 146.406C663.172 147.906 660.438 149.047 657.219 149.828C654.031 150.609 650.359 151 646.203 151H621.406ZM630.5 142.891H645.172C649.703 142.891 653.25 142.469 655.812 141.625C658.406 140.781 660.469 139.594 662 138.062C664.156 135.906 665.828 133.016 667.016 129.391C668.234 125.734 668.844 121.312 668.844 116.125C668.844 108.938 667.656 103.422 665.281 99.5781C662.938 95.7031 660.078 93.1094 656.703 91.7969C654.266 90.8594 650.344 90.3906 644.938 90.3906H630.5V142.891ZM686.562 126.109C686.562 116.891 689.125 110.062 694.25 105.625C698.531 101.938 703.75 100.094 709.906 100.094C716.75 100.094 722.344 102.344 726.688 106.844C731.031 111.312 733.203 117.5 733.203 125.406C733.203 131.812 732.234 136.859 730.297 140.547C728.391 144.203 725.594 147.047 721.906 149.078C718.25 151.109 714.25 152.125 709.906 152.125C702.938 152.125 697.297 149.891 692.984 145.422C688.703 140.953 686.562 134.516 686.562 126.109ZM695.234 126.109C695.234 132.484 696.625 137.266 699.406 140.453C702.188 143.609 705.688 145.188 709.906 145.188C714.094 145.188 717.578 143.594 720.359 140.406C723.141 137.219 724.531 132.359 724.531 125.828C724.531 119.672 723.125 115.016 720.312 111.859C717.531 108.672 714.062 107.078 709.906 107.078C705.688 107.078 702.188 108.656 699.406 111.812C696.625 114.969 695.234 119.734 695.234 126.109ZM775.625 132.766L783.922 133.844C783.016 139.562 780.688 144.047 776.938 147.297C773.219 150.516 768.641 152.125 763.203 152.125C756.391 152.125 750.906 149.906 746.75 145.469C742.625 141 740.562 134.609 740.562 126.297C740.562 120.922 741.453 116.219 743.234 112.188C745.016 108.156 747.719 105.141 751.344 103.141C755 101.109 758.969 100.094 763.25 100.094C768.656 100.094 773.078 101.469 776.516 104.219C779.953 106.938 782.156 110.812 783.125 115.844L774.922 117.109C774.141 113.766 772.75 111.25 770.75 109.562C768.781 107.875 766.391 107.031 763.578 107.031C759.328 107.031 755.875 108.562 753.219 111.625C750.562 114.656 749.234 119.469 749.234 126.062C749.234 132.75 750.516 137.609 753.078 140.641C755.641 143.672 758.984 145.188 763.109 145.188C766.422 145.188 769.188 144.172 771.406 142.141C773.625 140.109 775.031 136.984 775.625 132.766ZM789.125 128.922L797.703 128.172C798.109 131.609 799.047 134.438 800.516 136.656C802.016 138.844 804.328 140.625 807.453 142C810.578 143.344 814.094 144.016 818 144.016C821.469 144.016 824.531 143.5 827.188 142.469C829.844 141.438 831.812 140.031 833.094 138.25C834.406 136.438 835.062 134.469 835.062 132.344C835.062 130.188 834.438 128.312 833.188 126.719C831.938 125.094 829.875 123.734 827 122.641C825.156 121.922 821.078 120.812 814.766 119.312C808.453 117.781 804.031 116.344 801.5 115C798.219 113.281 795.766 111.156 794.141 108.625C792.547 106.062 791.75 103.203 791.75 100.047C791.75 96.5781 792.734 93.3438 794.703 90.3438C796.672 87.3125 799.547 85.0156 803.328 83.4531C807.109 81.8906 811.312 81.1094 815.938 81.1094C821.031 81.1094 825.516 81.9375 829.391 83.5938C833.297 85.2188 836.297 87.625 838.391 90.8125C840.484 94 841.609 97.6094 841.766 101.641L833.047 102.297C832.578 97.9531 830.984 94.6719 828.266 92.4531C825.578 90.2344 821.594 89.125 816.312 89.125C810.812 89.125 806.797 90.1406 804.266 92.1719C801.766 94.1719 800.516 96.5938 800.516 99.4375C800.516 101.906 801.406 103.938 803.188 105.531C804.938 107.125 809.5 108.766 816.875 110.453C824.281 112.109 829.359 113.562 832.109 114.812C836.109 116.656 839.062 119 840.969 121.844C842.875 124.656 843.828 127.906 843.828 131.594C843.828 135.25 842.781 138.703 840.688 141.953C838.594 145.172 835.578 147.688 831.641 149.5C827.734 151.281 823.328 152.172 818.422 152.172C812.203 152.172 806.984 151.266 802.766 149.453C798.578 147.641 795.281 144.922 792.875 141.297C790.5 137.641 789.25 133.516 789.125 128.922ZM855.219 91.9844V82.2812H863.656V91.9844H855.219ZM855.219 151V101.219H863.656V151H855.219ZM875 155.125L883.203 156.344C883.547 158.875 884.5 160.719 886.062 161.875C888.156 163.438 891.016 164.219 894.641 164.219C898.547 164.219 901.562 163.438 903.688 161.875C905.812 160.312 907.25 158.125 908 155.312C908.438 153.594 908.641 149.984 908.609 144.484C904.922 148.828 900.328 151 894.828 151C887.984 151 882.688 148.531 878.938 143.594C875.188 138.656 873.312 132.734 873.312 125.828C873.312 121.078 874.172 116.703 875.891 112.703C877.609 108.672 880.094 105.562 883.344 103.375C886.625 101.188 890.469 100.094 894.875 100.094C900.75 100.094 905.594 102.469 909.406 107.219V101.219H917.188V144.25C917.188 152 916.391 157.484 914.797 160.703C913.234 163.953 910.734 166.516 907.297 168.391C903.891 170.266 899.688 171.203 894.688 171.203C888.75 171.203 883.953 169.859 880.297 167.172C876.641 164.516 874.875 160.5 875 155.125ZM881.984 125.219C881.984 131.75 883.281 136.516 885.875 139.516C888.469 142.516 891.719 144.016 895.625 144.016C899.5 144.016 902.75 142.531 905.375 139.562C908 136.562 909.312 131.875 909.312 125.5C909.312 119.406 907.953 114.812 905.234 111.719C902.547 108.625 899.297 107.078 895.484 107.078C891.734 107.078 888.547 108.609 885.922 111.672C883.297 114.703 881.984 119.219 881.984 125.219ZM929.984 151V82.2812H938.422V106.938C942.359 102.375 947.328 100.094 953.328 100.094C957.016 100.094 960.219 100.828 962.938 102.297C965.656 103.734 967.594 105.734 968.75 108.297C969.938 110.859 970.531 114.578 970.531 119.453V151H962.094V119.453C962.094 115.234 961.172 112.172 959.328 110.266C957.516 108.328 954.938 107.359 951.594 107.359C949.094 107.359 946.734 108.016 944.516 109.328C942.328 110.609 940.766 112.359 939.828 114.578C938.891 116.797 938.422 119.859 938.422 123.766V151H929.984ZM1001.84 143.453L1003.06 150.906C1000.69 151.406 998.562 151.656 996.688 151.656C993.625 151.656 991.25 151.172 989.562 150.203C987.875 149.234 986.688 147.969 986 146.406C985.312 144.812 984.969 141.484 984.969 136.422V107.781H978.781V101.219H984.969V88.8906L993.359 83.8281V101.219H1001.84V107.781H993.359V136.891C993.359 139.297 993.5 140.844 993.781 141.531C994.094 142.219 994.578 142.766 995.234 143.172C995.922 143.578 996.891 143.781 998.141 143.781C999.078 143.781 1000.31 143.672 1001.84 143.453Z" fill="white"/>
</svg>
