<svg width="354" height="126" viewBox="0 0 354 126" fill="none" xmlns="http://www.w3.org/2000/svg">
<path d="M51.197 49.896C51.197 64.744 48.316 76.105 42.555 83.98C36.822 91.815 28.56 95.731 17.768 95.731H0V5.784H19.654C29.628 5.784 37.378 9.66 42.906 17.412C48.433 25.163 51.197 35.991 51.197 49.896ZM43.301 50.265C43.301 38.535 41.195 29.697 36.983 23.748C32.801 17.801 26.571 14.827 18.294 14.827H7.45801V86.687H16.539C25.43 86.687 32.114 83.631 36.588 77.52C41.063 71.369 43.301 62.283 43.301 50.265ZM105.949 61.955C105.949 72.947 103.975 81.54 100.026 87.733C96.078 93.886 90.623 96.962 83.663 96.962C79.363 96.962 75.546 95.546 72.212 92.716C68.878 89.887 66.304 85.826 64.491 80.535C62.677 75.244 61.77 69.051 61.77 61.955C61.77 50.963 63.73 42.411 67.65 36.3C71.569 30.147 77.009 27.072 83.97 27.072C90.697 27.072 96.034 30.208 99.982 36.484C103.96 42.76 105.949 51.249 105.949 61.955ZM69.317 61.955C69.317 70.568 70.545 77.13 73.001 81.643C75.458 86.154 79.071 88.41 83.838 88.41C88.605 88.41 92.218 86.175 94.675 81.703C97.16 77.192 98.403 70.609 98.403 61.955C98.403 53.382 97.16 46.881 94.675 42.452C92.218 37.981 88.576 35.746 83.751 35.746C78.983 35.746 75.385 37.94 72.957 42.328C70.531 46.717 69.317 53.26 69.317 61.955ZM137.975 96.962C131.015 96.962 125.618 93.967 121.786 87.979C117.985 81.95 116.084 73.44 116.084 62.447C116.084 51.168 118.014 42.451 121.874 36.3C125.764 30.147 131.293 27.072 138.458 27.072C140.769 27.072 143.079 27.419 145.389 28.116C147.7 28.815 149.513 29.635 150.83 30.577L148.592 39.253C146.983 38.35 145.228 37.612 143.328 37.037C141.427 36.422 139.745 36.115 138.282 36.115C128.514 36.115 123.629 44.851 123.629 62.324C123.629 70.609 124.814 76.966 127.183 81.396C129.581 85.826 133.12 88.041 137.8 88.041C141.807 88.041 145.916 86.831 150.128 84.411V93.455C146.91 95.793 142.86 96.962 137.975 96.962ZM192.595 77.335C192.595 83.611 190.928 88.451 187.594 91.855C184.259 95.26 179.58 96.962 173.555 96.962C167.179 96.962 162.207 95.546 158.638 92.716V83.241C160.949 84.882 163.421 86.175 166.053 87.119C168.714 88.061 171.273 88.533 173.73 88.533C177.533 88.533 180.457 87.692 182.504 86.011C184.552 84.287 185.576 81.683 185.576 78.197C185.576 75.572 184.757 73.337 183.119 71.491C181.51 69.605 178.352 67.389 173.643 64.847C169.167 62.509 165.98 60.479 164.079 58.755C162.207 56.991 160.803 55.003 159.867 52.787C158.96 50.573 158.507 47.927 158.507 44.851C158.507 39.355 160.101 35.028 163.289 31.87C166.477 28.67 170.849 27.072 176.407 27.072C181.583 27.072 186.643 28.547 191.586 31.5L188.998 39.807C184.172 37.018 179.8 35.623 175.88 35.623C172.429 35.623 169.825 36.381 168.071 37.9C166.316 39.417 165.439 41.509 165.439 44.175C165.439 45.979 165.761 47.518 166.404 48.788C167.077 50.06 168.144 51.27 169.606 52.419C171.069 53.567 173.877 55.229 178.03 57.402C183.733 60.315 187.579 63.247 189.568 66.2C191.586 69.153 192.595 72.865 192.595 77.335ZM211.767 95.731H204.484V28.301H211.767V95.731ZM203.87 10.029C203.87 7.691 204.279 5.989 205.098 4.922C205.917 3.815 206.941 3.262 208.169 3.262C209.339 3.262 210.348 3.815 211.197 4.922C212.045 6.03 212.469 7.732 212.469 10.029C212.469 12.326 212.045 14.049 211.197 15.197C210.348 16.304 209.339 16.858 208.169 16.858C206.941 16.858 205.917 16.304 205.098 15.197C204.279 14.049 203.87 12.326 203.87 10.029ZM266.562 28.301V34.762L257.656 36.238C258.475 37.674 259.206 39.56 259.85 41.898C260.493 44.194 260.815 46.8 260.815 49.712C260.815 56.315 259.206 61.585 255.989 65.523C252.771 69.46 248.356 71.429 242.74 71.429C241.306 71.429 239.962 71.265 238.704 70.937C235.604 73.234 234.053 76.125 234.053 79.612C234.053 81.458 234.595 82.832 235.677 83.734C236.759 84.596 238.616 85.026 241.248 85.026H249.76C254.965 85.026 258.958 86.565 261.737 89.64C264.544 92.716 265.948 97.187 265.948 103.052C265.948 110.518 263.813 116.198 259.543 120.094C255.272 124.031 249.043 126 240.853 126C234.565 126 229.71 124.359 226.289 121.078C222.896 117.797 221.199 113.162 221.199 107.175C221.199 103.073 222.135 99.526 224.007 96.53C225.879 93.537 228.511 91.506 231.904 90.44C230.675 89.661 229.637 88.451 228.788 86.81C227.97 85.169 227.561 83.262 227.561 81.089C227.561 78.628 228.029 76.474 228.964 74.629C229.9 72.783 231.377 70.998 233.395 69.276C230.909 67.84 228.876 65.401 227.298 61.955C225.747 58.51 224.972 54.572 224.972 50.143C224.972 42.76 226.552 37.078 229.71 33.1C232.869 29.081 237.344 27.072 243.135 27.072C245.65 27.072 247.917 27.481 249.935 28.301H266.562ZM228.219 107.051C228.219 110.702 229.315 113.471 231.509 115.357C233.702 117.244 236.847 118.187 240.941 118.187C247.054 118.187 251.573 116.895 254.497 114.311C257.451 111.769 258.929 108.302 258.929 103.913C258.929 100.263 258.124 97.721 256.515 96.285C254.907 94.89 251.88 94.193 247.434 94.193H238.704C235.399 94.193 232.825 95.301 230.982 97.515C229.139 99.73 228.219 102.909 228.219 107.051ZM232.167 49.896C232.167 54.613 233.117 58.182 235.019 60.601C236.92 63.021 239.567 64.231 242.959 64.231C250.067 64.231 253.62 59.391 253.62 49.712C253.62 39.581 250.023 34.515 242.827 34.515C239.406 34.515 236.774 35.808 234.931 38.391C233.088 40.975 232.167 44.81 232.167 49.896ZM309.337 95.731V52.112C309.337 46.615 308.445 42.513 306.661 39.807C304.876 37.099 302.083 35.746 298.281 35.746C293.221 35.746 289.521 37.674 287.182 41.529C284.871 45.385 283.716 51.701 283.716 60.479V95.731H276.433V0H283.716V28.979C283.716 32.465 283.599 35.356 283.365 37.653H283.804C285.237 34.412 287.27 31.87 289.901 30.025C292.563 28.137 295.59 27.194 298.983 27.194C304.862 27.194 309.264 29.162 312.188 33.1C315.142 36.997 316.619 43.21 316.619 51.741V95.731H309.337ZM347.154 88.533C348.438 88.533 349.682 88.41 350.88 88.163C352.078 87.877 353.033 87.59 353.735 87.302V95.116C352.949 95.65 351.779 96.08 350.225 96.408C348.7 96.777 347.33 96.962 346.101 96.962C336.8 96.962 332.15 90.091 332.15 76.351V36.238H325.262V31.316L332.15 27.072L335.221 12.675H339.432V28.301H353.379V36.238H339.432V75.92C339.432 79.981 340.12 83.098 341.494 85.272C342.869 87.447 344.756 88.533 347.154 88.533Z" fill="white"/>
</svg>
